# xmcd
#
# Track frame offsets:
#	180
#	15916
#	31475
#	44715
#	54995
#	66435
#	80017
#	91852
#	110255
#	123743
#
# Disc length: 1817 seconds
#
# Revision: 0
# Processed by: cddbd v1.5.2PL0 Copyright (c) Steve Scherf et al.
# Submitted via: audiograbber 1.83.01
#
DISCID=8107170a
DTITLE=Various Artist - New Country - Volume 4 - Number 2
DYEAR=1997
DGENRE=Country
TTITLE0=George Ducas - Every Time She Passes By
TTITLE1=Steve Kolander - Romeo
TTITLE2=Johnny Paycheck - (Pardon Me) I've Got Someone To Kill
TTITLE3=Tim Carroll - Open Flame
TTITLE4=Charlie Rich - Set Me Free
TTITLE5=Lefty Frizzell - Saginaw, Michigan
TTITLE6=Bluegrass '96 - Up On The Blue Ridge
TTITLE7=Carrie Newcomer - Crazy In Love
TTITLE8=Erica Wheeler - Maryland County Road
TTITLE9=The Reno Brothers - No Longer A Sweetheart Of Mine
EXTD=
EXTT0=
EXTT1=
EXTT2=
EXTT3=
EXTT4=
EXTT5=
EXTT6=
EXTT7=
EXTT8=
EXTT9=
PLAYORDER=
